<svg width="20" height="20" viewBox="0 0 20 20" fill="none" xmlns="http://www.w3.org/2000/svg">
<rect x="1.19883" y="0.799658" width="18.4" height="18.4" stroke="#D5D5D5" stroke-opacity="0.5" stroke-width="0.8"/>
<path d="M14.4004 9.99927C14.4004 12.2084 12.6095 13.9993 10.4004 13.9993C8.19125 13.9993 6.40039 12.2084 6.40039 9.99927C6.40039 7.79013 8.19125 5.99927 10.4004 5.99927C12.6095 5.99927 14.4004 7.79013 14.4004 9.99927Z" fill="#9747FF" stroke="#9747FF" stroke-width="1.2"/>
<path d="M10.4004 1.99927C10.0986 2.26593 9.67599 2.95927 10.4004 3.59927M10.4004 16.3993C10.7022 16.6659 11.1248 17.3593 10.4004 17.9993M16.4004 4.00144C15.9752 3.97512 15.1406 4.17761 15.2038 5.19804M5.197 14.3993C5.22331 14.8245 5.02083 15.659 4.00039 15.5959M4.80256 3.99927C4.77622 4.42488 4.97891 5.26031 6.00039 5.1971M15.2004 14.4013C15.6256 14.3765 16.4602 14.5679 16.397 15.5327M18.4004 9.99927C18.1338 9.69743 17.4404 9.27487 16.8004 9.99927M4.00039 9.59927C3.73373 9.90111 3.04039 10.3237 2.40039 9.59927" stroke="#9747FF" stroke-width="1.2" stroke-linecap="round"/>
</svg>
